<svg width="125" height="39" viewBox="0 0 125 39" fill="none" xmlns="http://www.w3.org/2000/svg">
<rect width="125" height="39" rx="19.5" fill="#7095CE"/>
<path d="M48.1355 25.5C50.0155 25.5 51.2555 24.72 51.2555 23.1C51.2555 21.64 50.0955 20.8 48.1555 20.8C46.1755 20.8 45.0355 21.64 45.0355 23.1C45.0355 24.72 46.2955 25.5 48.1355 25.5ZM48.1355 27.18C44.9555 27.18 43.0155 25.72 43.0155 23.26C43.0155 21.36 44.4155 20.08 46.2555 19.86C44.6355 19.54 43.3355 18.32 43.3355 16.54C43.3355 14.26 45.2355 12.82 48.1355 12.82C51.0555 12.82 52.9355 14.26 52.9355 16.54C52.9355 18.32 51.6555 19.54 50.0555 19.86C51.8755 20.08 53.2755 21.36 53.2755 23.26C53.2755 25.72 51.3355 27.18 48.1355 27.18ZM48.1555 19.06C49.8155 19.06 50.9155 18.18 50.9155 16.74C50.9155 15.22 49.6555 14.5 48.1355 14.5C46.5555 14.5 45.3555 15.22 45.3555 16.74C45.3555 18.18 46.4955 19.06 48.1555 19.06ZM55.7574 27V24.82H57.7774V27H55.7574ZM55.7574 19.08V16.9H57.7774V19.08H55.7574ZM65.5016 27.18C62.9016 27.18 61.0816 26.06 60.2816 23.4L62.1216 22.74C62.7216 25 63.9816 25.6 65.3816 25.6C67.2216 25.6 68.2816 24.8 68.2816 23.08C68.2816 21.5 67.2816 20.72 65.7816 20.72H63.9616V19.14H65.7216C66.9416 19.14 67.9416 18.28 67.9416 16.86C67.9416 15.16 66.8416 14.4 65.3416 14.4C64.0016 14.4 62.7416 15 62.1616 17.26L60.3216 16.6C61.1216 13.94 63.0216 12.82 65.5216 12.82C68.0616 12.82 69.9616 14.3 69.9616 16.62C69.9616 18.24 68.8816 19.48 67.3016 19.84C69.0816 20.1 70.3016 21.34 70.3016 23.18C70.3016 25.66 68.4416 27.18 65.5016 27.18ZM80.8905 19.98C80.8905 15.82 79.4905 14.4 77.6905 14.4C75.8705 14.4 74.4905 15.82 74.4905 19.98C74.4905 24.24 75.8705 25.6 77.6905 25.6C79.4905 25.6 80.8905 24.24 80.8905 19.98ZM77.6905 27.18C74.6105 27.18 72.5105 24.76 72.5105 19.98C72.5105 15.3 74.6105 12.82 77.6905 12.82C80.7705 12.82 82.8705 15.3 82.8705 19.98C82.8705 24.76 80.7705 27.18 77.6905 27.18Z" fill="white"/>
</svg>
