<svg width="125" height="39" viewBox="0 0 125 39" fill="none" xmlns="http://www.w3.org/2000/svg">
<rect width="125" height="39" rx="19.5" fill="#7095CE"/>
<path d="M41.6474 17.08L40.8074 15.66L44.6074 13H45.9474V27H44.0874V15.24L41.6474 17.08ZM49.1865 17.08L48.3465 15.66L52.1465 13H53.4865V27H51.6265V15.24L49.1865 17.08ZM57.0855 27V24.82H59.1055V27H57.0855ZM57.0855 19.08V16.9H59.1055V19.08H57.0855ZM66.8298 27.18C64.2298 27.18 62.4098 26.06 61.6098 23.4L63.4498 22.74C64.0498 25 65.3098 25.6 66.7098 25.6C68.5498 25.6 69.6098 24.8 69.6098 23.08C69.6098 21.5 68.6098 20.72 67.1098 20.72H65.2898V19.14H67.0498C68.2698 19.14 69.2698 18.28 69.2698 16.86C69.2698 15.16 68.1698 14.4 66.6698 14.4C65.3298 14.4 64.0698 15 63.4898 17.26L61.6498 16.6C62.4498 13.94 64.3498 12.82 66.8498 12.82C69.3898 12.82 71.2898 14.3 71.2898 16.62C71.2898 18.24 70.2098 19.48 68.6298 19.84C70.4098 20.1 71.6298 21.34 71.6298 23.18C71.6298 25.66 69.7698 27.18 66.8298 27.18ZM82.2187 19.98C82.2187 15.82 80.8187 14.4 79.0187 14.4C77.1987 14.4 75.8187 15.82 75.8187 19.98C75.8187 24.24 77.1987 25.6 79.0187 25.6C80.8187 25.6 82.2187 24.24 82.2187 19.98ZM79.0187 27.18C75.9387 27.18 73.8387 24.76 73.8387 19.98C73.8387 15.3 75.9387 12.82 79.0187 12.82C82.0987 12.82 84.1987 15.3 84.1987 19.98C84.1987 24.76 82.0987 27.18 79.0187 27.18Z" fill="white"/>
</svg>
