<svg width="125" height="39" viewBox="0 0 125 39" fill="none" xmlns="http://www.w3.org/2000/svg">
<rect width="125" height="39" rx="19.5" fill="#7095CE"/>
<path d="M39.2646 17.08L38.4246 15.66L42.2246 13H43.5646V27H41.7046V15.24L39.2646 17.08ZM46.7637 23.28V21.8L53.2037 13H55.4037V21.6H57.1637V23.28H55.4037V27H53.5437V23.28H46.7637ZM48.7437 21.6H53.5437V14.98L48.7437 21.6ZM59.4684 27V24.82H61.4884V27H59.4684ZM59.4684 19.08V16.9H61.4884V19.08H59.4684ZM69.2126 27.18C66.6126 27.18 64.7926 26.06 63.9926 23.4L65.8326 22.74C66.4326 25 67.6926 25.6 69.0926 25.6C70.9326 25.6 71.9926 24.8 71.9926 23.08C71.9926 21.5 70.9926 20.72 69.4926 20.72H67.6726V19.14H69.4326C70.6526 19.14 71.6526 18.28 71.6526 16.86C71.6526 15.16 70.5526 14.4 69.0526 14.4C67.7126 14.4 66.4526 15 65.8726 17.26L64.0326 16.6C64.8326 13.94 66.7326 12.82 69.2326 12.82C71.7726 12.82 73.6726 14.3 73.6726 16.62C73.6726 18.24 72.5926 19.48 71.0126 19.84C72.7926 20.1 74.0126 21.34 74.0126 23.18C74.0126 25.66 72.1526 27.18 69.2126 27.18ZM84.6015 19.98C84.6015 15.82 83.2015 14.4 81.4015 14.4C79.5815 14.4 78.2015 15.82 78.2015 19.98C78.2015 24.24 79.5815 25.6 81.4015 25.6C83.2015 25.6 84.6015 24.24 84.6015 19.98ZM81.4015 27.18C78.3215 27.18 76.2215 24.76 76.2215 19.98C76.2215 15.3 78.3215 12.82 81.4015 12.82C84.4815 12.82 86.5815 15.3 86.5815 19.98C86.5815 24.76 84.4815 27.18 81.4015 27.18Z" fill="white"/>
</svg>
