<svg width="125" height="39" viewBox="0 0 125 39" fill="none" xmlns="http://www.w3.org/2000/svg">
<rect width="125" height="39" rx="19.5" fill="#7095CE"/>
<path d="M40.6513 17.08L39.8113 15.66L43.6113 13H44.9513V27H43.0913V15.24L40.6513 17.08ZM47.5504 14.68V13H56.6904V14.1L51.7104 27H49.3704L54.8104 14.68H47.5504ZM58.0816 27V24.82H60.1016V27H58.0816ZM58.0816 19.08V16.9H60.1016V19.08H58.0816ZM67.8259 27.18C65.2259 27.18 63.4059 26.06 62.6059 23.4L64.4459 22.74C65.0459 25 66.3059 25.6 67.7059 25.6C69.5459 25.6 70.6059 24.8 70.6059 23.08C70.6059 21.5 69.6059 20.72 68.1059 20.72H66.2859V19.14H68.0459C69.2659 19.14 70.2659 18.28 70.2659 16.86C70.2659 15.16 69.1659 14.4 67.6659 14.4C66.3259 14.4 65.0659 15 64.4859 17.26L62.6459 16.6C63.4459 13.94 65.3459 12.82 67.8459 12.82C70.3859 12.82 72.2859 14.3 72.2859 16.62C72.2859 18.24 71.2059 19.48 69.6259 19.84C71.4059 20.1 72.6259 21.34 72.6259 23.18C72.6259 25.66 70.7659 27.18 67.8259 27.18ZM83.2148 19.98C83.2148 15.82 81.8148 14.4 80.0148 14.4C78.1948 14.4 76.8148 15.82 76.8148 19.98C76.8148 24.24 78.1948 25.6 80.0148 25.6C81.8148 25.6 83.2148 24.24 83.2148 19.98ZM80.0148 27.18C76.9348 27.18 74.8348 24.76 74.8348 19.98C74.8348 15.3 76.9348 12.82 80.0148 12.82C83.0948 12.82 85.1948 15.3 85.1948 19.98C85.1948 24.76 83.0948 27.18 80.0148 27.18Z" fill="white"/>
</svg>
