<svg width="125" height="39" viewBox="0 0 125 39" fill="none" xmlns="http://www.w3.org/2000/svg">
<rect width="125" height="39" rx="19.5" fill="#B6BAF9"/>
<path d="M38.7275 17.08L37.8875 15.66L41.6875 13H43.0275V27H41.1675V15.24L38.7275 17.08ZM54.8066 19.98C54.8066 15.82 53.4066 14.4 51.6066 14.4C49.7866 14.4 48.4066 15.82 48.4066 19.98C48.4066 24.24 49.7866 25.6 51.6066 25.6C53.4066 25.6 54.8066 24.24 54.8066 19.98ZM51.6066 27.18C48.5266 27.18 46.4266 24.76 46.4266 19.98C46.4266 15.3 48.5266 12.82 51.6066 12.82C54.6866 12.82 56.7866 15.3 56.7866 19.98C56.7866 24.76 54.6866 27.18 51.6066 27.18ZM59.3805 27V24.82H61.4005V27H59.3805ZM59.3805 19.08V16.9H61.4005V19.08H59.3805ZM72.3847 19.98C72.3847 15.82 70.9847 14.4 69.1847 14.4C67.3647 14.4 65.9847 15.82 65.9847 19.98C65.9847 24.24 67.3647 25.6 69.1847 25.6C70.9847 25.6 72.3847 24.24 72.3847 19.98ZM69.1847 27.18C66.1047 27.18 64.0047 24.76 64.0047 19.98C64.0047 15.3 66.1047 12.82 69.1847 12.82C72.2647 12.82 74.3647 15.3 74.3647 19.98C74.3647 24.76 72.2647 27.18 69.1847 27.18ZM85.1386 19.98C85.1386 15.82 83.7386 14.4 81.9386 14.4C80.1186 14.4 78.7386 15.82 78.7386 19.98C78.7386 24.24 80.1186 25.6 81.9386 25.6C83.7386 25.6 85.1386 24.24 85.1386 19.98ZM81.9386 27.18C78.8586 27.18 76.7586 24.76 76.7586 19.98C76.7586 15.3 78.8586 12.82 81.9386 12.82C85.0186 12.82 87.1186 15.3 87.1186 19.98C87.1186 24.76 85.0186 27.18 81.9386 27.18Z" fill="white"/>
</svg>
