<svg width="125" height="39" viewBox="0 0 125 39" fill="none" xmlns="http://www.w3.org/2000/svg">
<rect width="125" height="39" rx="19.5" fill="#B6BAF9"/>
<path d="M39.04 17.08L38.2 15.66L42 13H43.34V27H41.48V15.24L39.04 17.08ZM51.8591 27.18C49.2591 27.18 47.4391 26.06 46.6391 23.4L48.4791 22.74C49.0791 25 50.3391 25.6 51.7391 25.6C53.5791 25.6 54.6391 24.8 54.6391 23.08C54.6391 21.5 53.6391 20.72 52.1391 20.72H50.3191V19.14H52.0791C53.2991 19.14 54.2991 18.28 54.2991 16.86C54.2991 15.16 53.1991 14.4 51.6991 14.4C50.3591 14.4 49.0991 15 48.5191 17.26L46.6791 16.6C47.4791 13.94 49.3791 12.82 51.8791 12.82C54.4191 12.82 56.3191 14.3 56.3191 16.62C56.3191 18.24 55.2391 19.48 53.6591 19.84C55.4391 20.1 56.6591 21.34 56.6591 23.18C56.6591 25.66 54.7991 27.18 51.8591 27.18ZM59.068 27V24.82H61.088V27H59.068ZM59.068 19.08V16.9H61.088V19.08H59.068ZM72.0722 19.98C72.0722 15.82 70.6722 14.4 68.8722 14.4C67.0522 14.4 65.6722 15.82 65.6722 19.98C65.6722 24.24 67.0522 25.6 68.8722 25.6C70.6722 25.6 72.0722 24.24 72.0722 19.98ZM68.8722 27.18C65.7922 27.18 63.6922 24.76 63.6922 19.98C63.6922 15.3 65.7922 12.82 68.8722 12.82C71.9522 12.82 74.0522 15.3 74.0522 19.98C74.0522 24.76 71.9522 27.18 68.8722 27.18ZM84.8261 19.98C84.8261 15.82 83.4261 14.4 81.6261 14.4C79.8061 14.4 78.4261 15.82 78.4261 19.98C78.4261 24.24 79.8061 25.6 81.6261 25.6C83.4261 25.6 84.8261 24.24 84.8261 19.98ZM81.6261 27.18C78.5461 27.18 76.4461 24.76 76.4461 19.98C76.4461 15.3 78.5461 12.82 81.6261 12.82C84.7061 12.82 86.8061 15.3 86.8061 19.98C86.8061 24.76 84.7061 27.18 81.6261 27.18Z" fill="white"/>
</svg>
