<svg width="125" height="39" viewBox="0 0 125 39" fill="none" xmlns="http://www.w3.org/2000/svg">
<rect width="125" height="39" rx="19.5" fill="#B6BAF9"/>
<path d="M39.0498 17.08L38.2098 15.66L42.0098 13H43.3498V27H41.4898V15.24L39.0498 17.08ZM51.7688 27.18C48.6688 27.18 46.7488 24.82 46.7488 19.98C46.7488 15.56 48.7288 12.82 51.8088 12.82C53.6888 12.82 55.1688 13.84 56.0088 15.64L54.3488 16.4C53.8088 14.96 52.9088 14.4 51.8088 14.4C49.9888 14.4 48.7288 15.94 48.7288 19.98V20.08V20.1C49.3888 18.7 50.7088 17.92 52.3088 17.92C54.5488 17.92 56.4488 19.54 56.4488 22.5C56.4488 25.3 54.3888 27.2 51.7688 27.18ZM51.7888 25.6C53.3688 25.6 54.4488 24.5 54.4488 22.54C54.4488 20.56 53.3688 19.5 51.8088 19.5C50.1688 19.5 49.0088 20.68 49.0688 22.52C49.1088 24.06 49.9688 25.6 51.7888 25.6ZM59.0582 27V24.82H61.0782V27H59.0582ZM59.0582 19.08V16.9H61.0782V19.08H59.0582ZM72.0624 19.98C72.0624 15.82 70.6624 14.4 68.8624 14.4C67.0424 14.4 65.6624 15.82 65.6624 19.98C65.6624 24.24 67.0424 25.6 68.8624 25.6C70.6624 25.6 72.0624 24.24 72.0624 19.98ZM68.8624 27.18C65.7824 27.18 63.6824 24.76 63.6824 19.98C63.6824 15.3 65.7824 12.82 68.8624 12.82C71.9424 12.82 74.0424 15.3 74.0424 19.98C74.0424 24.76 71.9424 27.18 68.8624 27.18ZM84.8163 19.98C84.8163 15.82 83.4163 14.4 81.6163 14.4C79.7963 14.4 78.4163 15.82 78.4163 19.98C78.4163 24.24 79.7963 25.6 81.6163 25.6C83.4163 25.6 84.8163 24.24 84.8163 19.98ZM81.6163 27.18C78.5363 27.18 76.4363 24.76 76.4363 19.98C76.4363 15.3 78.5363 12.82 81.6163 12.82C84.6963 12.82 86.7963 15.3 86.7963 19.98C86.7963 24.76 84.6963 27.18 81.6163 27.18Z" fill="white"/>
</svg>
