<svg width="125" height="39" viewBox="0 0 125 39" fill="none" xmlns="http://www.w3.org/2000/svg">
<rect width="125" height="39" rx="19.5" fill="#B6BAF9"/>
<path d="M39.0498 17.08L38.2098 15.66L42.0098 13H43.3498V27H41.4898V15.24L39.0498 17.08ZM51.4288 12.82C54.5288 12.82 56.4288 15.18 56.4288 20.02C56.4288 24.44 54.4688 27.18 51.3888 27.18C49.4488 27.18 47.9688 26.16 47.1088 24.36L48.7688 23.6C49.3088 25.04 50.2088 25.6 51.3888 25.6C53.1888 25.6 54.4688 24.06 54.4688 20.02V19.92V19.9C53.8088 21.3 52.4688 22.08 50.8688 22.08C48.7488 22.08 46.8488 20.46 46.8488 17.5C46.8488 14.7 48.9088 12.8 51.4288 12.82ZM51.4088 14.4C49.9088 14.4 48.8488 15.5 48.8488 17.46C48.8488 19.42 49.9088 20.5 51.3888 20.5C53.0288 20.5 54.1888 19.32 54.1288 17.48C54.0888 15.94 53.2088 14.4 51.4088 14.4ZM59.0582 27V24.82H61.0782V27H59.0582ZM59.0582 19.08V16.9H61.0782V19.08H59.0582ZM72.0624 19.98C72.0624 15.82 70.6624 14.4 68.8624 14.4C67.0424 14.4 65.6624 15.82 65.6624 19.98C65.6624 24.24 67.0424 25.6 68.8624 25.6C70.6624 25.6 72.0624 24.24 72.0624 19.98ZM68.8624 27.18C65.7824 27.18 63.6824 24.76 63.6824 19.98C63.6824 15.3 65.7824 12.82 68.8624 12.82C71.9424 12.82 74.0424 15.3 74.0424 19.98C74.0424 24.76 71.9424 27.18 68.8624 27.18ZM84.8163 19.98C84.8163 15.82 83.4163 14.4 81.6163 14.4C79.7963 14.4 78.4163 15.82 78.4163 19.98C78.4163 24.24 79.7963 25.6 81.6163 25.6C83.4163 25.6 84.8163 24.24 84.8163 19.98ZM81.6163 27.18C78.5363 27.18 76.4363 24.76 76.4363 19.98C76.4363 15.3 78.5363 12.82 81.6163 12.82C84.6963 12.82 86.7963 15.3 86.7963 19.98C86.7963 24.76 84.6963 27.18 81.6163 27.18Z" fill="white"/>
</svg>
