<svg width="41" height="39" viewBox="0 0 41 39" fill="none" xmlns="http://www.w3.org/2000/svg">
<rect width="41" height="39" rx="19.5" fill="#B6BAF9"/>
<path d="M11.3935 17.08L10.5535 15.66L14.3535 13H15.6935V27H13.8335V15.24L11.3935 17.08ZM27.4726 19.98C27.4726 15.82 26.0726 14.4 24.2726 14.4C22.4526 14.4 21.0726 15.82 21.0726 19.98C21.0726 24.24 22.4526 25.6 24.2726 25.6C26.0726 25.6 27.4726 24.24 27.4726 19.98ZM24.2726 27.18C21.1926 27.18 19.0926 24.76 19.0926 19.98C19.0926 15.3 21.1926 12.82 24.2726 12.82C27.3526 12.82 29.4526 15.3 29.4526 19.98C29.4526 24.76 27.3526 27.18 24.2726 27.18Z" fill="white"/>
</svg>
