<svg width="41" height="39" viewBox="0 0 41 39" fill="none" xmlns="http://www.w3.org/2000/svg">
<rect width="41" height="39" rx="19.5" fill="#5B86C7"/>
<path d="M11.6377 17.08L10.7977 15.66L14.5977 13H15.9377V27H14.0777V15.24L11.6377 17.08ZM19.6967 27V25.64L24.0967 21.36C25.8767 19.64 26.6567 18.34 26.6567 16.9C26.6567 15.36 25.7367 14.4 24.1767 14.4C22.7767 14.4 21.6767 15.24 21.2967 17.36L19.4367 16.8C20.0367 14.24 21.7967 12.82 24.2367 12.82C27.1767 12.82 28.6767 14.64 28.6767 16.86C28.6767 18.8 27.4967 20.26 25.3367 22.36L22.2767 25.32H29.1967V27H19.6967Z" fill="white"/>
</svg>
