<svg width="41" height="39" viewBox="0 0 41 39" fill="none" xmlns="http://www.w3.org/2000/svg">
<rect width="41" height="39" rx="19.5" fill="#5B86C7"/>
<path d="M11.706 17.08L10.866 15.66L14.666 13H16.006V27H14.146V15.24L11.706 17.08ZM24.5251 27.18C21.9251 27.18 20.1051 26.06 19.3051 23.4L21.1451 22.74C21.7451 25 23.0051 25.6 24.4051 25.6C26.2451 25.6 27.3051 24.8 27.3051 23.08C27.3051 21.5 26.3051 20.72 24.8051 20.72H22.9851V19.14H24.7451C25.9651 19.14 26.9651 18.28 26.9651 16.86C26.9651 15.16 25.8651 14.4 24.3651 14.4C23.0251 14.4 21.7651 15 21.1851 17.26L19.3451 16.6C20.1451 13.94 22.0451 12.82 24.5451 12.82C27.0851 12.82 28.9851 14.3 28.9851 16.62C28.9851 18.24 27.9051 19.48 26.3251 19.84C28.1051 20.1 29.3251 21.34 29.3251 23.18C29.3251 25.66 27.4651 27.18 24.5251 27.18Z" fill="white"/>
</svg>
