<svg width="41" height="39" viewBox="0 0 41 39" fill="none" xmlns="http://www.w3.org/2000/svg">
<rect width="41" height="39" rx="19.5" fill="#5B86C7"/>
<path d="M11.7939 17.08L10.9539 15.66L14.7539 13H16.0939V27H14.2339V15.24L11.7939 17.08ZM24.413 25.6C26.173 25.6 27.253 24.24 27.253 22.2C27.253 20.2 26.133 19.06 24.473 19.06C23.173 19.06 22.013 19.74 21.513 21.26L20.053 20.76L20.853 13H28.313V14.68H22.213L21.753 19.06C22.513 17.96 23.713 17.48 24.933 17.48C27.553 17.48 29.233 19.3 29.233 22.2C29.233 25.2 27.333 27.18 24.373 27.18C22.413 27.2 20.553 26.38 19.693 24.08L21.493 23.3C22.153 25.18 23.193 25.6 24.413 25.6Z" fill="white"/>
</svg>
