<svg width="41" height="39" viewBox="0 0 41 39" fill="none" xmlns="http://www.w3.org/2000/svg">
<rect width="41" height="39" rx="19.5" fill="#B6BAF9"/>
<path d="M11.7158 17.08L10.8758 15.66L14.6758 13H16.0158V27H14.1558V15.24L11.7158 17.08ZM24.4348 27.18C21.3348 27.18 19.4148 24.82 19.4148 19.98C19.4148 15.56 21.3948 12.82 24.4748 12.82C26.3548 12.82 27.8348 13.84 28.6748 15.64L27.0148 16.4C26.4748 14.96 25.5748 14.4 24.4748 14.4C22.6548 14.4 21.3948 15.94 21.3948 19.98V20.08V20.1C22.0548 18.7 23.3748 17.92 24.9748 17.92C27.2148 17.92 29.1148 19.54 29.1148 22.5C29.1148 25.3 27.0548 27.2 24.4348 27.18ZM24.4548 25.6C26.0348 25.6 27.1148 24.5 27.1148 22.54C27.1148 20.56 26.0348 19.5 24.4748 19.5C22.8348 19.5 21.6748 20.68 21.7348 22.52C21.7748 24.06 22.6348 25.6 24.4548 25.6Z" fill="white"/>
</svg>
