<svg width="41" height="39" viewBox="0 0 41 39" fill="none" xmlns="http://www.w3.org/2000/svg">
<rect width="41" height="39" rx="19.5" fill="#5B86C7"/>
<path d="M11.5595 17.08L10.7195 15.66L14.5195 13H15.8595V27H13.9995V15.24L11.5595 17.08ZM24.2586 25.5C26.1386 25.5 27.3786 24.72 27.3786 23.1C27.3786 21.64 26.2186 20.8 24.2786 20.8C22.2986 20.8 21.1586 21.64 21.1586 23.1C21.1586 24.72 22.4186 25.5 24.2586 25.5ZM24.2586 27.18C21.0786 27.18 19.1386 25.72 19.1386 23.26C19.1386 21.36 20.5386 20.08 22.3786 19.86C20.7586 19.54 19.4586 18.32 19.4586 16.54C19.4586 14.26 21.3586 12.82 24.2586 12.82C27.1786 12.82 29.0586 14.26 29.0586 16.54C29.0586 18.32 27.7786 19.54 26.1786 19.86C27.9986 20.08 29.3986 21.36 29.3986 23.26C29.3986 25.72 27.4586 27.18 24.2586 27.18ZM24.2786 19.06C25.9386 19.06 27.0386 18.18 27.0386 16.74C27.0386 15.22 25.7786 14.5 24.2586 14.5C22.6786 14.5 21.4786 15.22 21.4786 16.74C21.4786 18.18 22.6186 19.06 24.2786 19.06Z" fill="white"/>
</svg>
