<svg width="41" height="39" viewBox="0 0 41 39" fill="none" xmlns="http://www.w3.org/2000/svg">
<rect width="41" height="39" rx="19.5" fill="#5B86C7"/>
<path d="M11.7158 17.08L10.8758 15.66L14.6758 13H16.0158V27H14.1558V15.24L11.7158 17.08ZM24.0948 12.82C27.1948 12.82 29.0948 15.18 29.0948 20.02C29.0948 24.44 27.1348 27.18 24.0548 27.18C22.1148 27.18 20.6348 26.16 19.7748 24.36L21.4348 23.6C21.9748 25.04 22.8748 25.6 24.0548 25.6C25.8548 25.6 27.1348 24.06 27.1348 20.02V19.92V19.9C26.4748 21.3 25.1348 22.08 23.5348 22.08C21.4148 22.08 19.5148 20.46 19.5148 17.5C19.5148 14.7 21.5748 12.8 24.0948 12.82ZM24.0748 14.4C22.5748 14.4 21.5148 15.5 21.5148 17.46C21.5148 19.42 22.5748 20.5 24.0548 20.5C25.6948 20.5 26.8548 19.32 26.7948 17.48C26.7548 15.94 25.8748 14.4 24.0748 14.4Z" fill="white"/>
</svg>
