<svg width="41" height="39" viewBox="0 0 41 39" fill="none" xmlns="http://www.w3.org/2000/svg">
<rect width="41" height="39" rx="19.5" fill="#5B86C7"/>
<path d="M9.69672 27V25.64L14.0967 21.36C15.8767 19.64 16.6567 18.34 16.6567 16.9C16.6567 15.36 15.7367 14.4 14.1767 14.4C12.7767 14.4 11.6767 15.24 11.2967 17.36L9.43672 16.8C10.0367 14.24 11.7967 12.82 14.2367 12.82C17.1767 12.82 18.6767 14.64 18.6767 16.86C18.6767 18.8 17.4967 20.26 15.3367 22.36L12.2767 25.32H19.1967V27H9.69672ZM29.6894 19.98C29.6894 15.82 28.2894 14.4 26.4894 14.4C24.6694 14.4 23.2894 15.82 23.2894 19.98C23.2894 24.24 24.6694 25.6 26.4894 25.6C28.2894 25.6 29.6894 24.24 29.6894 19.98ZM26.4894 27.18C23.4094 27.18 21.3094 24.76 21.3094 19.98C21.3094 15.3 23.4094 12.82 26.4894 12.82C29.5694 12.82 31.6694 15.3 31.6694 19.98C31.6694 24.76 29.5694 27.18 26.4894 27.18Z" fill="white"/>
</svg>
