<svg width="41" height="39" viewBox="0 0 41 39" fill="none" xmlns="http://www.w3.org/2000/svg">
<rect width="41" height="39" rx="19.5" fill="#5B86C7"/>
<path d="M12.1577 27V25.64L16.5577 21.36C18.3377 19.64 19.1177 18.34 19.1177 16.9C19.1177 15.36 18.1977 14.4 16.6377 14.4C15.2377 14.4 14.1377 15.24 13.7577 17.36L11.8977 16.8C12.4977 14.24 14.2577 12.82 16.6977 12.82C19.6377 12.82 21.1377 14.64 21.1377 16.86C21.1377 18.8 19.9577 20.26 17.7977 22.36L14.7377 25.32H21.6577V27H12.1577ZM23.9033 17.08L23.0633 15.66L26.8633 13H28.2033V27H26.3433V15.24L23.9033 17.08Z" fill="white"/>
</svg>
