<svg width="41" height="39" viewBox="0 0 41 39" fill="none" xmlns="http://www.w3.org/2000/svg">
<rect width="41" height="39" rx="19.5" fill="#5B86C7"/>
<path d="M9.79438 27V25.64L14.1944 21.36C15.9744 19.64 16.7544 18.34 16.7544 16.9C16.7544 15.36 15.8344 14.4 14.2744 14.4C12.8744 14.4 11.7744 15.24 11.3944 17.36L9.53438 16.8C10.1344 14.24 11.8944 12.82 14.3344 12.82C17.2744 12.82 18.7744 14.64 18.7744 16.86C18.7744 18.8 17.5944 20.26 15.4344 22.36L12.3744 25.32H19.2944V27H9.79438ZM22.06 27V25.64L26.46 21.36C28.24 19.64 29.02 18.34 29.02 16.9C29.02 15.36 28.1 14.4 26.54 14.4C25.14 14.4 24.04 15.24 23.66 17.36L21.8 16.8C22.4 14.24 24.16 12.82 26.6 12.82C29.54 12.82 31.04 14.64 31.04 16.86C31.04 18.8 29.86 20.26 27.7 22.36L24.64 25.32H31.56V27H22.06Z" fill="white"/>
</svg>
