<svg width="41" height="39" viewBox="0 0 41 39" fill="none" xmlns="http://www.w3.org/2000/svg">
<rect width="41" height="39" rx="19.5" fill="#B6BAF9"/>
<path d="M9.86273 27V25.64L14.2627 21.36C16.0427 19.64 16.8227 18.34 16.8227 16.9C16.8227 15.36 15.9027 14.4 14.3427 14.4C12.9427 14.4 11.8427 15.24 11.4627 17.36L9.60273 16.8C10.2027 14.24 11.9627 12.82 14.4027 12.82C17.3427 12.82 18.8427 14.64 18.8427 16.86C18.8427 18.8 17.6627 20.26 15.5027 22.36L12.4427 25.32H19.3627V27H9.86273ZM26.8884 27.18C24.2884 27.18 22.4684 26.06 21.6684 23.4L23.5084 22.74C24.1084 25 25.3684 25.6 26.7684 25.6C28.6084 25.6 29.6684 24.8 29.6684 23.08C29.6684 21.5 28.6684 20.72 27.1684 20.72H25.3484V19.14H27.1084C28.3284 19.14 29.3284 18.28 29.3284 16.86C29.3284 15.16 28.2284 14.4 26.7284 14.4C25.3884 14.4 24.1284 15 23.5484 17.26L21.7084 16.6C22.5084 13.94 24.4084 12.82 26.9084 12.82C29.4484 12.82 31.3484 14.3 31.3484 16.62C31.3484 18.24 30.2684 19.48 28.6884 19.84C30.4684 20.1 31.6884 21.34 31.6884 23.18C31.6884 25.66 29.8284 27.18 26.8884 27.18Z" fill="white"/>
</svg>
