<svg width="41" height="39" viewBox="0 0 41 39" fill="none" xmlns="http://www.w3.org/2000/svg">
<rect width="41" height="39" rx="19.5" fill="#B6BAF9"/>
<path d="M10.0776 27V25.64L14.4776 21.36C16.2576 19.64 17.0376 18.34 17.0376 16.9C17.0376 15.36 16.1176 14.4 14.5576 14.4C13.1576 14.4 12.0576 15.24 11.6776 17.36L9.81758 16.8C10.4176 14.24 12.1776 12.82 14.6176 12.82C17.5576 12.82 19.0576 14.64 19.0576 16.86C19.0576 18.8 17.8776 20.26 15.7176 22.36L12.6576 25.32H19.5776V27H10.0776ZM21.1777 23.28V21.8L27.6177 13H29.8177V21.6H31.5777V23.28H29.8177V27H27.9577V23.28H21.1777ZM23.1577 21.6H27.9577V14.98L23.1577 21.6Z" fill="white"/>
</svg>
