<svg width="41" height="39" viewBox="0 0 41 39" fill="none" xmlns="http://www.w3.org/2000/svg">
<rect width="41" height="39" rx="19.5" fill="#5B86C7"/>
<path d="M9.95063 27V25.64L14.3506 21.36C16.1306 19.64 16.9106 18.34 16.9106 16.9C16.9106 15.36 15.9906 14.4 14.4306 14.4C13.0306 14.4 11.9306 15.24 11.5506 17.36L9.69063 16.8C10.2906 14.24 12.0506 12.82 14.4906 12.82C17.4306 12.82 18.9306 14.64 18.9306 16.86C18.9306 18.8 17.7506 20.26 15.5906 22.36L12.5306 25.32H19.4506V27H9.95063ZM26.7763 25.6C28.5363 25.6 29.6163 24.24 29.6163 22.2C29.6163 20.2 28.4963 19.06 26.8363 19.06C25.5363 19.06 24.3763 19.74 23.8763 21.26L22.4163 20.76L23.2163 13H30.6763V14.68H24.5763L24.1163 19.06C24.8763 17.96 26.0763 17.48 27.2963 17.48C29.9163 17.48 31.5963 19.3 31.5963 22.2C31.5963 25.2 29.6963 27.18 26.7363 27.18C24.7763 27.2 22.9163 26.38 22.0563 24.08L23.8563 23.3C24.5163 25.18 25.5563 25.6 26.7763 25.6Z" fill="white"/>
</svg>
