<svg width="41" height="39" viewBox="0 0 41 39" fill="none" xmlns="http://www.w3.org/2000/svg">
<rect width="41" height="39" rx="19.5" fill="#5B86C7"/>
<path d="M10.019 27V25.64L14.419 21.36C16.199 19.64 16.979 18.34 16.979 16.9C16.979 15.36 16.059 14.4 14.499 14.4C13.099 14.4 11.999 15.24 11.619 17.36L9.75898 16.8C10.359 14.24 12.119 12.82 14.559 12.82C17.499 12.82 18.999 14.64 18.999 16.86C18.999 18.8 17.819 20.26 15.659 22.36L12.599 25.32H19.519V27H10.019ZM26.6516 27.18C23.5516 27.18 21.6316 24.82 21.6316 19.98C21.6316 15.56 23.6116 12.82 26.6916 12.82C28.5716 12.82 30.0516 13.84 30.8916 15.64L29.2316 16.4C28.6916 14.96 27.7916 14.4 26.6916 14.4C24.8716 14.4 23.6116 15.94 23.6116 19.98V20.08V20.1C24.2716 18.7 25.5916 17.92 27.1916 17.92C29.4316 17.92 31.3316 19.54 31.3316 22.5C31.3316 25.3 29.2716 27.2 26.6516 27.18ZM26.6716 25.6C28.2516 25.6 29.3316 24.5 29.3316 22.54C29.3316 20.56 28.2516 19.5 26.6916 19.5C25.0516 19.5 23.8916 20.68 23.9516 22.52C23.9916 24.06 24.8516 25.6 26.6716 25.6Z" fill="white"/>
</svg>
