<svg width="41" height="39" viewBox="0 0 41 39" fill="none" xmlns="http://www.w3.org/2000/svg">
<rect width="41" height="39" rx="19.5" fill="#5B86C7"/>
<path d="M11.0541 27V25.64L15.4541 21.36C17.2341 19.64 18.0141 18.34 18.0141 16.9C18.0141 15.36 17.0941 14.4 15.5341 14.4C14.1341 14.4 13.0341 15.24 12.6541 17.36L10.7941 16.8C11.3941 14.24 13.1541 12.82 15.5941 12.82C18.5341 12.82 20.0341 14.64 20.0341 16.86C20.0341 18.8 18.8541 20.26 16.6941 22.36L13.6341 25.32H20.5541V27H11.0541ZM21.7691 14.68V13H30.9091V14.1L25.9291 27H23.5891L29.0291 14.68H21.7691Z" fill="white"/>
</svg>
