<svg width="41" height="39" viewBox="0 0 41 39" fill="none" xmlns="http://www.w3.org/2000/svg">
<rect width="41" height="39" rx="19.5" fill="#5B86C7"/>
<path d="M9.71625 27V25.64L14.1163 21.36C15.8963 19.64 16.6763 18.34 16.6763 16.9C16.6763 15.36 15.7563 14.4 14.1963 14.4C12.7963 14.4 11.6963 15.24 11.3163 17.36L9.45625 16.8C10.0563 14.24 11.8163 12.82 14.2563 12.82C17.1963 12.82 18.6963 14.64 18.6963 16.86C18.6963 18.8 17.5163 20.26 15.3563 22.36L12.2963 25.32H19.2163V27H9.71625ZM26.6219 25.5C28.5019 25.5 29.7419 24.72 29.7419 23.1C29.7419 21.64 28.5819 20.8 26.6419 20.8C24.6619 20.8 23.5219 21.64 23.5219 23.1C23.5219 24.72 24.7819 25.5 26.6219 25.5ZM26.6219 27.18C23.4419 27.18 21.5019 25.72 21.5019 23.26C21.5019 21.36 22.9019 20.08 24.7419 19.86C23.1219 19.54 21.8219 18.32 21.8219 16.54C21.8219 14.26 23.7219 12.82 26.6219 12.82C29.5419 12.82 31.4219 14.26 31.4219 16.54C31.4219 18.32 30.1419 19.54 28.5419 19.86C30.3619 20.08 31.7619 21.36 31.7619 23.26C31.7619 25.72 29.8219 27.18 26.6219 27.18ZM26.6419 19.06C28.3019 19.06 29.4019 18.18 29.4019 16.74C29.4019 15.22 28.1419 14.5 26.6219 14.5C25.0419 14.5 23.8419 15.22 23.8419 16.74C23.8419 18.18 24.9819 19.06 26.6419 19.06Z" fill="white"/>
</svg>
