<svg width="41" height="39" viewBox="0 0 41 39" fill="none" xmlns="http://www.w3.org/2000/svg">
<rect width="41" height="39" rx="19.5" fill="#5B86C7"/>
<path d="M10.0678 27V25.64L14.4678 21.36C16.2478 19.64 17.0278 18.34 17.0278 16.9C17.0278 15.36 16.1078 14.4 14.5478 14.4C13.1478 14.4 12.0478 15.24 11.6678 17.36L9.80781 16.8C10.4078 14.24 12.1678 12.82 14.6078 12.82C17.5478 12.82 19.0478 14.64 19.0478 16.86C19.0478 18.8 17.8678 20.26 15.7078 22.36L12.6478 25.32H19.5678V27H10.0678ZM26.2628 12.82C29.3628 12.82 31.2628 15.18 31.2628 20.02C31.2628 24.44 29.3028 27.18 26.2228 27.18C24.2828 27.18 22.8028 26.16 21.9428 24.36L23.6028 23.6C24.1428 25.04 25.0428 25.6 26.2228 25.6C28.0228 25.6 29.3028 24.06 29.3028 20.02V19.92V19.9C28.6428 21.3 27.3028 22.08 25.7028 22.08C23.5828 22.08 21.6828 20.46 21.6828 17.5C21.6828 14.7 23.7428 12.8 26.2628 12.82ZM26.2428 14.4C24.7428 14.4 23.6828 15.5 23.6828 17.46C23.6828 19.42 24.7428 20.5 26.2228 20.5C27.8628 20.5 29.0228 19.32 28.9628 17.48C28.9228 15.94 28.0428 14.4 26.2428 14.4Z" fill="white"/>
</svg>
