<svg width="41" height="39" viewBox="0 0 41 39" fill="none" xmlns="http://www.w3.org/2000/svg">
<rect width="41" height="39" rx="19.5" fill="#B6BAF9"/>
<path d="M20.7555 27.18C18.1555 27.18 16.3355 26.06 15.5355 23.4L17.3755 22.74C17.9755 25 19.2355 25.6 20.6355 25.6C22.4755 25.6 23.5355 24.8 23.5355 23.08C23.5355 21.5 22.5355 20.72 21.0355 20.72H19.2155V19.14H20.9755C22.1955 19.14 23.1955 18.28 23.1955 16.86C23.1955 15.16 22.0955 14.4 20.5955 14.4C19.2555 14.4 17.9955 15 17.4155 17.26L15.5755 16.6C16.3755 13.94 18.2755 12.82 20.7755 12.82C23.3155 12.82 25.2155 14.3 25.2155 16.62C25.2155 18.24 24.1355 19.48 22.5555 19.84C24.3355 20.1 25.5555 21.34 25.5555 23.18C25.5555 25.66 23.6955 27.18 20.7555 27.18Z" fill="white"/>
</svg>
