<svg width="41" height="39" viewBox="0 0 41 39" fill="none" xmlns="http://www.w3.org/2000/svg">
<rect width="41" height="39" rx="19.5" fill="#B6BAF9"/>
<path d="M14.3786 27.18C11.7786 27.18 9.95859 26.06 9.15859 23.4L10.9986 22.74C11.5986 25 12.8586 25.6 14.2586 25.6C16.0986 25.6 17.1586 24.8 17.1586 23.08C17.1586 21.5 16.1586 20.72 14.6586 20.72H12.8386V19.14H14.5986C15.8186 19.14 16.8186 18.28 16.8186 16.86C16.8186 15.16 15.7186 14.4 14.2186 14.4C12.8786 14.4 11.6186 15 11.0386 17.26L9.19859 16.6C9.99859 13.94 11.8986 12.82 14.3986 12.82C16.9386 12.82 18.8386 14.3 18.8386 16.62C18.8386 18.24 17.7586 19.48 16.1786 19.84C17.9586 20.1 19.1786 21.34 19.1786 23.18C19.1786 25.66 17.3186 27.18 14.3786 27.18ZM29.7675 19.98C29.7675 15.82 28.3675 14.4 26.5675 14.4C24.7475 14.4 23.3675 15.82 23.3675 19.98C23.3675 24.24 24.7475 25.6 26.5675 25.6C28.3675 25.6 29.7675 24.24 29.7675 19.98ZM26.5675 27.18C23.4875 27.18 21.3875 24.76 21.3875 19.98C21.3875 15.3 23.4875 12.82 26.5675 12.82C29.6475 12.82 31.7475 15.3 31.7475 19.98C31.7475 24.76 29.6475 27.18 26.5675 27.18Z" fill="white"/>
</svg>
