<svg width="41" height="39" viewBox="0 0 41 39" fill="none" xmlns="http://www.w3.org/2000/svg">
<rect width="41" height="39" rx="19.5" fill="#B6BAF9"/>
<path d="M16.986 27.18C14.386 27.18 12.566 26.06 11.766 23.4L13.606 22.74C14.206 25 15.466 25.6 16.866 25.6C18.706 25.6 19.766 24.8 19.766 23.08C19.766 21.5 18.766 20.72 17.266 20.72H15.446V19.14H17.206C18.426 19.14 19.426 18.28 19.426 16.86C19.426 15.16 18.326 14.4 16.826 14.4C15.486 14.4 14.226 15 13.646 17.26L11.806 16.6C12.606 13.94 14.506 12.82 17.006 12.82C19.546 12.82 21.446 14.3 21.446 16.62C21.446 18.24 20.366 19.48 18.786 19.84C20.566 20.1 21.786 21.34 21.786 23.18C21.786 25.66 19.926 27.18 16.986 27.18ZM23.8349 17.08L22.9949 15.66L26.7949 13H28.1349V27H26.2749V15.24L23.8349 17.08Z" fill="white"/>
</svg>
