<svg width="41" height="39" viewBox="0 0 41 39" fill="none" xmlns="http://www.w3.org/2000/svg">
<rect width="41" height="39" rx="19.5" fill="#5B86C7"/>
<path d="M20.6434 25.6C22.4034 25.6 23.4834 24.24 23.4834 22.2C23.4834 20.2 22.3634 19.06 20.7034 19.06C19.4034 19.06 18.2434 19.74 17.7434 21.26L16.2834 20.76L17.0834 13H24.5434V14.68H18.4434L17.9834 19.06C18.7434 17.96 19.9434 17.48 21.1634 17.48C23.7834 17.48 25.4634 19.3 25.4634 22.2C25.4634 25.2 23.5634 27.18 20.6034 27.18C18.6434 27.2 16.7834 26.38 15.9234 24.08L17.7234 23.3C18.3834 25.18 19.4234 25.6 20.6434 25.6Z" fill="white"/>
</svg>
