<svg width="41" height="39" viewBox="0 0 41 39" fill="none" xmlns="http://www.w3.org/2000/svg">
<rect width="41" height="39" rx="19.5" fill="#5B86C7"/>
<path d="M20.6653 27.18C17.5653 27.18 15.6453 24.82 15.6453 19.98C15.6453 15.56 17.6253 12.82 20.7053 12.82C22.5853 12.82 24.0653 13.84 24.9053 15.64L23.2453 16.4C22.7053 14.96 21.8053 14.4 20.7053 14.4C18.8853 14.4 17.6253 15.94 17.6253 19.98V20.08V20.1C18.2853 18.7 19.6053 17.92 21.2053 17.92C23.4453 17.92 25.3453 19.54 25.3453 22.5C25.3453 25.3 23.2853 27.2 20.6653 27.18ZM20.6853 25.6C22.2653 25.6 23.3453 24.5 23.3453 22.54C23.3453 20.56 22.2653 19.5 20.7053 19.5C19.0653 19.5 17.9053 20.68 17.9653 22.52C18.0053 24.06 18.8653 25.6 20.6853 25.6Z" fill="white"/>
</svg>
