<svg width="41" height="39" viewBox="0 0 41 39" fill="none" xmlns="http://www.w3.org/2000/svg">
<rect width="41" height="39" rx="19.5" fill="#5B86C7"/>
<path d="M20.4891 25.5C22.3691 25.5 23.6091 24.72 23.6091 23.1C23.6091 21.64 22.4491 20.8 20.5091 20.8C18.5291 20.8 17.3891 21.64 17.3891 23.1C17.3891 24.72 18.6491 25.5 20.4891 25.5ZM20.4891 27.18C17.3091 27.18 15.3691 25.72 15.3691 23.26C15.3691 21.36 16.7691 20.08 18.6091 19.86C16.9891 19.54 15.6891 18.32 15.6891 16.54C15.6891 14.26 17.5891 12.82 20.4891 12.82C23.4091 12.82 25.2891 14.26 25.2891 16.54C25.2891 18.32 24.0091 19.54 22.4091 19.86C24.2291 20.08 25.6291 21.36 25.6291 23.26C25.6291 25.72 23.6891 27.18 20.4891 27.18ZM20.5091 19.06C22.1691 19.06 23.2691 18.18 23.2691 16.74C23.2691 15.22 22.0091 14.5 20.4891 14.5C18.9091 14.5 17.7091 15.22 17.7091 16.74C17.7091 18.18 18.8491 19.06 20.5091 19.06Z" fill="white"/>
</svg>
