<svg width="41" height="39" viewBox="0 0 41 39" fill="none" xmlns="http://www.w3.org/2000/svg">
<rect width="41" height="39" rx="19.5" fill="#B6BAF9"/>
<path d="M20.3253 12.82C23.4253 12.82 25.3253 15.18 25.3253 20.02C25.3253 24.44 23.3653 27.18 20.2853 27.18C18.3453 27.18 16.8653 26.16 16.0053 24.36L17.6653 23.6C18.2053 25.04 19.1053 25.6 20.2853 25.6C22.0853 25.6 23.3653 24.06 23.3653 20.02V19.92V19.9C22.7053 21.3 21.3653 22.08 19.7653 22.08C17.6453 22.08 15.7453 20.46 15.7453 17.5C15.7453 14.7 17.8053 12.8 20.3253 12.82ZM20.3053 14.4C18.8053 14.4 17.7453 15.5 17.7453 17.46C17.7453 19.42 18.8053 20.5 20.2853 20.5C21.9253 20.5 23.0853 19.32 23.0253 17.48C22.9853 15.94 22.1053 14.4 20.3053 14.4Z" fill="white"/>
</svg>
