<svg width="40" height="40" viewBox="0 0 40 40" fill="none" xmlns="http://www.w3.org/2000/svg">
<rect width="40" height="40" fill="#E2DFDC"/>
<path d="M29.5734 23.6406C29.8859 23.7969 30.1203 24.1484 30.1203 24.5391C30.1203 24.5781 30.1203 24.6562 30.1203 24.7344L29.1828 28.7969C29.0656 29.2266 28.7141 29.5 28.2844 29.5C18.2453 29.5 10.1594 21.4141 10.1594 11.375C10.1594 10.9453 10.4328 10.5938 10.8625 10.4766L14.925 9.53906C15.0031 9.53906 15.0813 9.5 15.1203 9.5C15.5109 9.5 15.8625 9.73438 16.0188 10.0859L17.8938 14.4609C17.9328 14.5781 17.9719 14.6953 17.9719 14.8125C17.9719 15.125 17.8156 15.3984 17.6203 15.5547L15.2375 17.5078C16.6828 20.5547 19.1047 22.9766 22.1516 24.4219L24.1047 22.0391C24.2609 21.8438 24.5344 21.6875 24.8078 21.6875C24.9641 21.6875 25.0813 21.7266 25.1984 21.7656L29.5734 23.6406Z" fill="#5B86C7"/>
</svg>
