<svg width="126" height="41" viewBox="0 0 126 41" fill="none" xmlns="http://www.w3.org/2000/svg">
<rect y="0.970215" width="125.67" height="39.08" rx="19.54" fill="#5B86C7"/>
<path d="M36.0808 25V16.927H31.6088V25H30.3218V15.9H37.3678V25H36.0808ZM43.8552 21.724C43.8552 20.047 43.1272 19.254 42.0482 19.254C40.9692 19.254 40.2412 20.047 40.2412 21.724C40.2412 23.401 40.9692 24.194 42.0482 24.194C43.1272 24.194 43.8552 23.401 43.8552 21.724ZM42.0482 25.117C40.2802 25.117 39.0582 23.856 39.0582 21.724C39.0582 19.592 40.2802 18.331 42.0482 18.331C43.8162 18.331 45.0382 19.592 45.0382 21.724C45.0382 23.856 43.8162 25.117 42.0482 25.117ZM45.8172 26.781V24.077H46.3762C46.7792 23.661 46.9872 22.634 47.0522 21.477C47.0912 20.788 47.1042 19.943 47.1302 18.448H51.6932V24.077H52.6552V26.781H51.6282V25H46.8442V26.781H45.8172ZM47.5592 24.077H50.5232V19.371H48.1442C48.1312 20.19 48.0922 21.23 48.0532 21.828C47.9622 22.972 47.7932 23.661 47.5592 24.077ZM53.9066 27.6V18.448H55.0116L55.0506 19.67C55.4666 18.825 56.2986 18.331 57.2086 18.331C58.6906 18.331 59.7956 19.436 59.7956 21.724C59.7956 24.012 58.6906 25.117 57.2086 25.117C56.3246 25.117 55.5056 24.649 55.0766 23.843V27.6H53.9066ZM55.0766 22.036C55.1026 23.466 55.9086 24.142 56.8316 24.142C57.8716 24.142 58.6126 23.401 58.6126 21.724C58.6126 20.047 57.8716 19.306 56.8316 19.306C55.9086 19.306 55.1026 19.995 55.0766 21.412V22.036ZM65.8943 21.724C65.8943 20.047 65.1663 19.254 64.0873 19.254C63.0083 19.254 62.2803 20.047 62.2803 21.724C62.2803 23.401 63.0083 24.194 64.0873 24.194C65.1663 24.194 65.8943 23.401 65.8943 21.724ZM64.0873 25.117C62.3193 25.117 61.0973 23.856 61.0973 21.724C61.0973 19.592 62.3193 18.331 64.0873 18.331C65.8553 18.331 67.0773 19.592 67.0773 21.724C67.0773 23.856 65.8553 25.117 64.0873 25.117ZM71.3747 25.117C69.5807 25.117 68.3717 24.012 68.3717 21.113C68.3717 17.889 69.2037 16.316 70.9717 15.939C71.6347 15.796 72.4667 15.744 73.5977 15.445L73.7407 16.537C72.9347 16.745 72.3497 16.784 71.4787 16.94C70.0357 17.213 69.6067 18.071 69.4637 20.203C69.8667 19.371 70.6727 18.812 71.7387 18.812C73.2857 18.812 74.3647 19.982 74.3647 21.958C74.3647 23.869 73.1427 25.117 71.3747 25.117ZM71.3747 24.194C72.4667 24.194 73.1817 23.362 73.1817 21.958C73.1817 20.489 72.4797 19.735 71.4007 19.735C70.3217 19.735 69.5807 20.502 69.5807 21.893C69.5807 23.375 70.2827 24.194 71.3747 24.194ZM75.9203 25V18.448H77.0903V21.1H80.1973V18.448H81.3673V25H80.1973V22.036H77.0903V25H75.9203ZM85.9362 25.117C84.1552 25.117 82.9332 23.869 82.9332 21.724C82.9332 19.579 84.1552 18.331 85.9102 18.331C87.6782 18.331 88.7832 19.579 88.7442 21.958H84.1292C84.1682 23.401 84.8702 24.194 85.9362 24.194C86.8072 24.194 87.3142 23.687 87.6002 22.803L88.6532 23.232C88.2112 24.441 87.2622 25.117 85.9362 25.117ZM84.1682 21.035H87.5352C87.4442 19.839 86.8202 19.254 85.9102 19.254C84.9742 19.254 84.3112 19.813 84.1682 21.035ZM93.0456 25.117C91.2646 25.117 90.0426 23.869 90.0426 21.724C90.0426 19.579 91.2646 18.331 93.0196 18.331C94.7876 18.331 95.8926 19.579 95.8536 21.958H91.2386C91.2776 23.401 91.9796 24.194 93.0456 24.194C93.9166 24.194 94.4236 23.687 94.7096 22.803L95.7626 23.232C95.3206 24.441 94.3716 25.117 93.0456 25.117ZM91.2776 21.035H94.6446C94.5536 19.839 93.9296 19.254 93.0196 19.254C92.0836 19.254 91.4206 19.813 91.2776 21.035Z" fill="white"/>
</svg>
