<svg width="40" height="40" viewBox="0 0 40 40" fill="none" xmlns="http://www.w3.org/2000/svg">
<rect width="40" height="40" fill="#E2DFDC"/>
<path d="M29.7688 18.6406C30.2766 19.1094 30.2766 19.9297 29.7688 20.3984L21.0188 29.1484C20.55 29.6562 19.7297 29.6562 19.2609 29.1484L10.5109 20.3984C10.0031 19.9297 10.0031 19.1094 10.5109 18.6406L19.2609 9.89062C19.7297 9.38281 20.55 9.38281 21.0188 9.89062L29.7688 18.6406ZM25.8234 19.1094C25.9797 18.9922 25.9797 18.7969 25.8234 18.6797L22.5422 15.6328C22.3469 15.4375 21.9953 15.5938 21.9953 15.8672V17.9375H17.6203C16.9563 17.9375 16.3703 18.5234 16.3703 19.1875V22.3125C16.3703 22.5078 16.5266 22.625 16.6828 22.625H17.9328C18.1281 22.625 18.2453 22.5078 18.2453 22.3125V19.8125H21.9953V21.9219C21.9953 22.1953 22.3469 22.3516 22.5422 22.1562L25.8234 19.1094Z" fill="#5B86C7"/>
</svg>
