<svg width="174" height="45" viewBox="0 0 174 45" fill="none" xmlns="http://www.w3.org/2000/svg">
<rect width="174" height="45" rx="22.5" fill="#425EA6"/>
<path d="M48.5829 23C48.5829 19 46.5629 17.4 44.2029 17.4C41.8229 17.4 39.8229 19 39.8229 23C39.8229 27 41.8229 28.6 44.2029 28.6C46.5629 28.6 48.5829 27 48.5829 23ZM37.8029 23C37.8029 18.34 40.5829 15.82 44.2029 15.82C47.8429 15.82 50.6029 18.34 50.6029 23C50.6029 27.66 47.8429 30.18 44.2029 30.18C40.5829 30.18 37.8029 27.66 37.8029 23ZM57.4782 30H55.6782V21.4H52.3982V19.92H60.7982V21.4H57.4782V30ZM62.8099 30V19.92H71.0099V30H69.2099V21.34H64.6099V30H62.8099ZM74.0013 34V19.92H75.7013L75.7613 21.8C76.4013 20.5 77.6813 19.74 79.0813 19.74C81.3613 19.74 83.0613 21.44 83.0613 24.96C83.0613 28.48 81.3613 30.18 79.0813 30.18C77.7213 30.18 76.4613 29.46 75.8013 28.22V34H74.0013ZM75.8013 25.44C75.8413 27.64 77.0813 28.68 78.5013 28.68C80.1013 28.68 81.2413 27.54 81.2413 24.96C81.2413 22.38 80.1013 21.24 78.5013 21.24C77.0813 21.24 75.8413 22.3 75.8013 24.48V25.44ZM91.7615 30L91.7215 27.98C91.1215 29.38 89.7215 30.18 88.2015 30.18C86.5215 30.18 85.2615 29.18 85.2615 27.48C85.2615 25.88 86.4215 24.72 88.5215 24.26L91.7215 23.56V23.36C91.7215 22.14 91.2015 21.16 89.6815 21.16C88.3215 21.16 87.5015 21.9 87.0615 23.18L85.4815 22.48C86.1615 20.82 87.4615 19.8 89.6215 19.74C91.7215 19.68 93.4815 20.68 93.4615 23.28V30H91.7615ZM87.1415 27.24C87.1415 28.2 87.7015 28.7 88.6815 28.68C90.0415 28.66 91.6815 27.66 91.6815 25.64V25.3V24.9L88.9015 25.52C87.7015 25.78 87.1415 26.42 87.1415 27.24ZM96.4623 30V19.92H101.262C102.982 19.92 104.242 20.96 104.242 22.32C104.242 23.82 103.262 24.58 102.102 24.76V24.78H102.122C103.322 24.78 104.642 25.48 104.642 27.26C104.642 28.8 103.382 30 101.262 30H96.4623ZM102.822 27.04C102.822 26.16 102.202 25.6 101.122 25.6H98.2623V28.58H101.182C102.202 28.58 102.822 28.06 102.822 27.04ZM100.782 24.16C101.802 24.16 102.422 23.64 102.422 22.74C102.422 21.82 101.842 21.34 100.842 21.34H98.2623V24.16H100.782ZM106.951 30V19.92H108.751V27.4L113.311 19.92H115.251V30H113.451V22.52L108.891 30H106.951ZM122.341 30H120.541V21.4H117.261V19.92H125.661V21.4H122.341V30ZM133.733 26.82C133.733 25.74 133.093 25.1 132.013 25.1H129.473V28.58H132.013C133.093 28.58 133.733 27.94 133.733 26.82ZM127.673 30V19.92H129.473V23.66H131.953C134.213 23.66 135.533 24.82 135.533 26.82C135.533 28.84 134.213 30 131.953 30H127.673Z" fill="white"/>
</svg>
