<svg width="126" height="41" viewBox="0 0 126 41" fill="none" xmlns="http://www.w3.org/2000/svg">
<rect y="0.970215" width="125.67" height="39.08" rx="19.54" fill="#5B86C7"/>
<path d="M32.1527 25.117C30.2417 25.117 28.9677 24.389 28.3957 22.66L29.6047 22.231C30.0337 23.7 30.9567 24.09 32.0747 24.09C33.4787 24.09 34.2457 23.57 34.2457 22.426C34.2457 21.412 33.5827 20.918 32.6077 20.918H30.9437V19.878H32.5037C33.3227 19.878 33.9857 19.384 33.9857 18.409C33.9857 17.304 33.2187 16.81 32.0487 16.81C30.9827 16.81 30.0597 17.2 29.6307 18.669L28.4217 18.24C28.9937 16.511 30.3457 15.783 32.1657 15.783C33.9987 15.783 35.2987 16.745 35.2987 18.253C35.2987 19.306 34.5967 20.073 33.7127 20.346C34.7657 20.528 35.5587 21.308 35.5587 22.517C35.5587 24.129 34.2587 25.117 32.1527 25.117ZM41.0884 25L41.0624 23.687C40.6724 24.597 39.7624 25.117 38.7744 25.117C37.6824 25.117 36.8634 24.467 36.8634 23.362C36.8634 22.322 37.6174 21.568 38.9824 21.269L41.0624 20.814V20.684C41.0624 19.891 40.7244 19.254 39.7364 19.254C38.8524 19.254 38.3194 19.735 38.0334 20.567L37.0064 20.112C37.4484 19.033 38.2934 18.37 39.6974 18.331C41.0624 18.292 42.2064 18.942 42.1934 20.632V25H41.0884ZM38.0854 23.206C38.0854 23.83 38.4494 24.155 39.0864 24.142C39.9704 24.129 41.0364 23.479 41.0364 22.166V21.945V21.685L39.2294 22.088C38.4494 22.257 38.0854 22.673 38.0854 23.206ZM44.1439 25V18.448H49.4739V25H48.3039V19.371H45.3139V25H44.1439ZM51.4184 25V18.448H52.5884V23.31L55.5524 18.448H56.8134V25H55.6434V20.138L52.6794 25H51.4184ZM58.3805 21.724C58.3805 19.579 59.5895 18.331 61.3575 18.331C62.6445 18.331 63.5935 19.007 64.0095 20.268L62.9565 20.697C62.6965 19.761 62.1895 19.254 61.3575 19.254C60.2785 19.254 59.5635 20.086 59.5635 21.724C59.5635 23.362 60.2785 24.194 61.3575 24.194C62.1895 24.194 62.6965 23.687 62.9565 22.751L64.0095 23.18C63.5935 24.441 62.6445 25.117 61.3575 25.117C59.5895 25.117 58.3805 23.869 58.3805 21.724ZM69.6021 25L69.5761 23.687C69.1861 24.597 68.2761 25.117 67.2881 25.117C66.1961 25.117 65.3771 24.467 65.3771 23.362C65.3771 22.322 66.1311 21.568 67.4961 21.269L69.5761 20.814V20.684C69.5761 19.891 69.2381 19.254 68.2501 19.254C67.3661 19.254 66.8331 19.735 66.5471 20.567L65.5201 20.112C65.9621 19.033 66.8071 18.37 68.2111 18.331C69.5761 18.292 70.7201 18.942 70.7071 20.632V25H69.6021ZM66.5991 23.206C66.5991 23.83 66.9631 24.155 67.6001 24.142C68.4841 24.129 69.5501 23.479 69.5501 22.166V21.945V21.685L67.7431 22.088C66.9631 22.257 66.5991 22.673 66.5991 23.206ZM75.0572 25H73.8872V19.41H71.7552V18.448H77.2152V19.41H75.0572V25ZM82.4619 22.933C82.4619 22.231 82.0459 21.815 81.3439 21.815H79.6929V24.077H81.3439C82.0459 24.077 82.4619 23.661 82.4619 22.933ZM78.5229 25V18.448H79.6929V20.879H81.3049C82.7739 20.879 83.6319 21.633 83.6319 22.933C83.6319 24.246 82.7739 25 81.3049 25H78.5229ZM84.7359 21.724C84.7359 19.579 85.9449 18.331 87.7129 18.331C88.9999 18.331 89.9489 19.007 90.3649 20.268L89.3119 20.697C89.0519 19.761 88.5449 19.254 87.7129 19.254C86.6339 19.254 85.9189 20.086 85.9189 21.724C85.9189 23.362 86.6339 24.194 87.7129 24.194C88.5449 24.194 89.0519 23.687 89.3119 22.751L90.3649 23.18C89.9489 24.441 88.9999 25.117 87.7129 25.117C85.9449 25.117 84.7359 23.869 84.7359 21.724ZM91.7746 20.476C91.7746 19.202 92.6326 18.448 94.1016 18.448H97.0656V25H95.8956V22.452H94.2966L92.9446 25H91.6056L93.1006 22.309C92.2426 22.036 91.7746 21.399 91.7746 20.476ZM92.9446 20.476C92.9446 21.113 93.3606 21.516 94.1146 21.516H95.8956V19.371H94.0626C93.3606 19.371 92.9446 19.735 92.9446 20.476Z" fill="white"/>
</svg>
