<svg width="167" height="45" viewBox="0 0 167 45" fill="none" xmlns="http://www.w3.org/2000/svg">
<rect width="167" height="45" rx="22.5" fill="#425EA6"/>
<path d="M37.2739 30.18C34.3339 30.18 32.3739 29.06 31.4939 26.4L33.3539 25.74C34.0139 28 35.4339 28.6 37.1539 28.6C39.3139 28.6 40.4939 27.8 40.4939 26.04C40.4939 24.48 39.4739 23.72 37.9739 23.72H35.4139V22.12H37.8139C39.0739 22.12 40.0939 21.36 40.0939 19.86C40.0939 18.16 38.9139 17.4 37.1139 17.4C35.4739 17.4 34.0539 18 33.3939 20.26L31.5339 19.6C32.4139 16.94 34.4939 15.82 37.2939 15.82C40.1139 15.82 42.1139 17.3 42.1139 19.62C42.1139 21.24 41.0339 22.42 39.6739 22.84C41.2939 23.12 42.5139 24.32 42.5139 26.18C42.5139 28.66 40.5139 30.18 37.2739 30.18ZM51.0212 30L50.9812 27.98C50.3812 29.38 48.9812 30.18 47.4612 30.18C45.7812 30.18 44.5212 29.18 44.5212 27.48C44.5212 25.88 45.6812 24.72 47.7812 24.26L50.9812 23.56V23.36C50.9812 22.14 50.4612 21.16 48.9412 21.16C47.5812 21.16 46.7612 21.9 46.3212 23.18L44.7412 22.48C45.4212 20.82 46.7212 19.8 48.8812 19.74C50.9812 19.68 52.7412 20.68 52.7213 23.28V30H51.0212ZM46.4012 27.24C46.4012 28.2 46.9612 28.7 47.9412 28.68C49.3012 28.66 50.9412 27.66 50.9412 25.64V25.3V24.9L48.1612 25.52C46.9612 25.78 46.4012 26.42 46.4012 27.24ZM55.722 30V19.92H63.922V30H62.122V21.34H57.522V30H55.722ZM66.9134 30V19.92H68.7134V27.4L73.2734 19.92H75.2134V30H73.4134V22.52L68.8534 30H66.9134ZM77.6244 24.96C77.6244 21.66 79.4844 19.74 82.2044 19.74C84.1844 19.74 85.6444 20.78 86.2844 22.72L84.6644 23.38C84.2644 21.94 83.4844 21.16 82.2044 21.16C80.5444 21.16 79.4444 22.44 79.4444 24.96C79.4444 27.48 80.5444 28.76 82.2044 28.76C83.4844 28.76 84.2644 27.98 84.6644 26.54L86.2844 27.2C85.6444 29.14 84.1844 30.18 82.2044 30.18C79.4844 30.18 77.6244 28.26 77.6244 24.96ZM94.8884 30L94.8484 27.98C94.2484 29.38 92.8484 30.18 91.3284 30.18C89.6484 30.18 88.3884 29.18 88.3884 27.48C88.3884 25.88 89.5484 24.72 91.6484 24.26L94.8484 23.56V23.36C94.8484 22.14 94.3284 21.16 92.8084 21.16C91.4484 21.16 90.6284 21.9 90.1884 23.18L88.6084 22.48C89.2884 20.82 90.5884 19.8 92.7484 19.74C94.8484 19.68 96.6084 20.68 96.5884 23.28V30H94.8884ZM90.2684 27.24C90.2684 28.2 90.8284 28.7 91.8084 28.68C93.1684 28.66 94.8084 27.66 94.8084 25.64V25.3V24.9L92.0284 25.52C90.8284 25.78 90.2684 26.42 90.2684 27.24ZM103.281 30H101.481V21.4H98.2009V19.92H106.601V21.4H103.281V30ZM114.673 26.82C114.673 25.74 114.033 25.1 112.953 25.1H110.413V28.58H112.953C114.033 28.58 114.673 27.94 114.673 26.82ZM108.613 30V19.92H110.413V23.66H112.893C115.153 23.66 116.473 24.82 116.473 26.82C116.473 28.84 115.153 30 112.893 30H108.613ZM118.171 24.96C118.171 21.66 120.031 19.74 122.751 19.74C124.731 19.74 126.191 20.78 126.831 22.72L125.211 23.38C124.811 21.94 124.031 21.16 122.751 21.16C121.091 21.16 119.991 22.44 119.991 24.96C119.991 27.48 121.091 28.76 122.751 28.76C124.031 28.76 124.811 27.98 125.211 26.54L126.831 27.2C126.191 29.14 124.731 30.18 122.751 30.18C120.031 30.18 118.171 28.26 118.171 24.96ZM129 23.04C129 21.08 130.32 19.92 132.58 19.92H137.14V30H135.34V26.08H132.88L130.8 30H128.74L131.04 25.86C129.72 25.44 129 24.46 129 23.04ZM130.8 23.04C130.8 24.02 131.44 24.64 132.6 24.64H135.34V21.34H132.52C131.44 21.34 130.8 21.9 130.8 23.04Z" fill="white"/>
</svg>
