<svg width="40" height="40" viewBox="0 0 40 40" fill="none" xmlns="http://www.w3.org/2000/svg">
<rect width="40" height="40" fill="#E2DFDC"/>
<path d="M32.05 17.625C32.3625 17.625 32.675 17.9375 32.675 18.25V19.5C32.675 19.8516 32.3625 20.125 32.05 20.125H29.55V22.625C29.55 22.9766 29.2375 23.25 28.925 23.25H27.675C27.3234 23.25 27.05 22.9766 27.05 22.625V20.125H24.55C24.1984 20.125 23.925 19.8516 23.925 19.5V18.25C23.925 17.9375 24.1984 17.625 24.55 17.625H27.05V15.125C27.05 14.8125 27.3234 14.5 27.675 14.5H28.925C29.2375 14.5 29.55 14.8125 29.55 15.125V17.625H32.05ZM16.425 19.5C13.6516 19.5 11.425 17.2734 11.425 14.5C11.425 11.7656 13.6516 9.5 16.425 9.5C19.1594 9.5 21.425 11.7656 21.425 14.5C21.425 17.2734 19.1594 19.5 16.425 19.5ZM19.9016 20.75C22.7922 20.75 25.175 23.1328 25.175 26.0234V27.625C25.175 28.6797 24.3156 29.5 23.3 29.5H9.55C8.49531 29.5 7.675 28.6797 7.675 27.625V26.0234C7.675 23.1328 10.0188 20.75 12.9094 20.75H13.5734C14.4328 21.1797 15.4094 21.375 16.425 21.375C17.4406 21.375 18.3781 21.1797 19.2375 20.75H19.9016Z" fill="#5B86C7"/>
</svg>
